<svg width="220" height="550" version="1.1" xmlns="http://www.w3.org/2000/svg">
 <g>
  <rect width="220" height="550" fill="#004baa"/>
  <rect x="24" y="10" width="24" height="530" fill="#f0f000" stroke="#fff" stroke-width="2"/>
  <rect x="175" y="10" width="24" height="530" fill="#f0f000" stroke="#fff" stroke-width="2"/>
  <rect x="70" width="80" height="55" ry="4" fill="#e6e6e6"/>
  <text x="95" y="45" fill="#323232" font-family="Arial" font-size="16px" style="line-height:2">USB</text>
  <rect x="135" y="4" width="6" height="20" fill="#b4b4b4"/>
  <rect x="80" y="4" width="6" height="20" fill="#b4b4b4"/>
  <rect x="62" y="92" width="35" height="60" fill="#e6e6e6" stroke="#b4b4b4" stroke-width="7"/>
  <rect x="113" y="87" width="51" height="73" ry="10" fill="#f0f000"/>
  <rect transform="rotate(-45)" x="-140" y="212" width="65" height="105" fill="#b4b4b4"/>
  <rect transform="rotate(45)" x="233" y="55" width="65" height="105" fill="#b4b4b4"/>
  <rect transform="rotate(45)" x="222" y="65" width="85" height="85" ry="5" fill="#333"/>
  <circle cx="111" cy="305" r="6" fill="#191919"/>
  <text transform="rotate(-45)" x="-140" y="240" fill="#dcdcdc" font-family="Arial" font-size="10px" style="line-height:2">STM32</text>
  <text transform="rotate(-45)" x="-140" y="255" fill="#dcdcdc" font-family="Arial" font-size="10px" style="line-height:2">F103C8T6</text>
  <rect x="62" y="330" width="100" height="35" ry="20" fill="#bebebe" stroke="#dcdcdc" stroke-width="3"/>
  <rect x="75" y="380" width="73" height="32" fill="#323232"/>
  <circle cx="135" cy="395" r="6" fill="#646464"/>
  <rect x="66" y="443" width="30" height="15" fill="#00b400" stroke="#dcdcdc"/>
  <text x="68" y="440" fill="#dcdcdc" font-family="Arial" font-size="10px" style="line-height:2">PC13</text>
  <rect x="131" y="443" width="30" height="15" fill="#a00000" stroke="#dcdcdc"/>
  <rect x="60" y="470" width="103" height="24" fill="#f0f000" stroke="#fff" stroke-width="2"/>
  <text x="51" y="530" fill="#f0f0f0" font-family="Arial" font-size="18px" style="line-height:2">STM32 Bluepill</text>
 </g>
</svg>
